<svg width="512" height="512" viewBox="0 0 512 512" fill='none' xmlns="http://www.w3.org/2000/svg" style="background-color:white">
<path d="M121.567 41.4672C136.821 29.0539 170.835 13.6231 246.397 13.6231C286.882 13.6231 316.964 17.0062 337.339 21.6215C347.546 23.9335 355.117 26.5106 360.278 29.0112C362.857 30.261 364.685 31.4205 365.9 32.4077C367.164 33.4343 367.453 34.0202 367.453 34.0198C368.386 36.1365 368.452 38.022 367.881 39.9434C367.264 42.0247 365.78 44.502 363.032 47.2787C357.468 52.8994 347.929 58.5375 335.427 63.5472C310.575 73.5053 276.431 80.0355 246.397 80.0355C216.137 80.0355 197.868 76.8415 183.023 73.6532C180.784 73.1725 178.599 72.6851 176.442 72.2039L176.436 72.2026C164.283 69.4916 153.024 66.98 138.144 66.98C120.78 66.98 108.18 70.7926 100.446 80.7717C93.0605 90.3015 91.5113 103.85 91.5113 119.202C91.5113 125.376 91.179 131.924 90.8261 138.88C89.5002 165.006 87.8827 196.878 102.492 236.277C111.529 260.649 123.889 276.331 137.583 286.955C151.166 297.493 165.695 302.755 178.395 306.831C180.219 307.416 181.984 307.973 183.692 308.511C194.344 311.87 202.749 314.52 209.099 319.026C212.549 321.474 215.19 324.372 217.047 328.141C218.921 331.944 220.18 337.01 220.305 344.043C220.308 350.6 220.713 359.155 221.147 368.316L221.18 369.021C221.632 378.563 222.112 388.843 222.249 398.713C222.386 408.615 222.173 417.873 221.29 425.386C220.848 429.14 220.257 432.295 219.524 434.794C218.769 437.365 217.985 438.816 217.408 439.524C213.184 444.707 205.373 448.822 194.73 451.7C184.276 454.527 172.041 455.911 160.095 456.377C152.759 456.664 146.646 458.978 142.165 462.94C137.684 466.903 135.206 472.2 134.703 477.662C133.696 488.61 140.613 499.691 153.272 502.737C171.594 507.145 212.242 512 260.831 512H261.028C284.75 512 307.555 512 325.827 510.707C334.988 510.058 343.241 509.071 350.026 507.527C356.569 506.038 362.762 503.823 366.879 500.034C373.959 493.519 377.448 484.011 373.542 474.692C369.836 465.851 360.42 459.604 347.244 456.542C340.598 454.997 332.889 454.329 325.615 453.7L325.451 453.686C318.018 453.044 310.928 452.432 304.632 451.118C298.229 449.782 293.5 447.876 290.433 445.217C287.697 442.845 285.812 439.479 285.812 433.667V343.982C285.812 324.736 298.108 312.183 315.375 301.987C323.843 296.986 333.047 292.832 341.902 288.834L342.265 288.67C350.99 284.732 359.707 280.796 366.118 276.426C379.432 267.35 388.322 252.754 393.881 235.178C399.442 217.598 401.838 196.537 401.838 173.694C401.838 142.844 399.162 120.322 396.469 104.178C395.345 97.4417 394.218 91.8138 393.307 87.2703L393.306 87.2657L393.306 87.2644L393.303 87.2518C393.129 86.3809 392.962 85.5498 392.805 84.7585C392.511 83.2764 392.262 81.9807 392.055 80.8457L418.974 97.9294L426 86.3547L382.408 59.0333L344.241 87.0021L352.026 98.0577L378.235 78.7631C378.556 81.3849 379.128 84.3449 379.748 87.4668C379.909 88.2823 380.079 89.1275 380.254 90.0043L380.262 90.0433L380.263 90.0464C381.173 94.5868 382.252 99.9735 383.335 106.468C385.916 121.942 388.514 143.694 388.514 173.694C388.514 195.693 386.191 215.218 381.204 230.986C376.216 246.758 368.729 258.273 358.727 265.091C353.48 268.668 345.959 272.111 336.884 276.208L336.261 276.489C327.582 280.407 317.812 284.816 308.711 290.19C290.171 301.138 272.489 317.25 272.489 343.982V433.667C272.489 443.181 275.878 450.459 281.816 455.608C287.424 460.47 294.769 462.963 301.967 464.466C309.038 465.941 316.793 466.61 323.927 467.226L324.493 467.275C332 467.924 338.725 468.533 344.292 469.826C355.543 472.441 360.005 476.978 361.296 480.058C362.386 482.659 361.989 486.206 357.966 489.908C356.532 491.228 353.218 492.844 347.132 494.229C341.287 495.559 333.787 496.487 324.906 497.116C307.144 498.373 284.781 498.377 260.831 498.377C212.825 498.377 173.289 493.558 156.324 489.476C150.108 487.981 147.587 483.078 147.968 478.938C148.16 476.856 149.082 474.835 150.88 473.244C152.679 471.654 155.727 470.181 160.604 469.991C173.084 469.503 186.386 468.048 198.137 464.87C209.701 461.743 220.765 456.685 227.643 448.245C229.842 445.548 231.279 442.139 232.285 438.709C233.312 435.208 234.022 431.224 234.518 427.013C235.508 418.597 235.711 408.626 235.571 398.52C235.43 388.381 234.939 377.872 234.488 368.362L234.468 367.934C234.022 358.515 233.629 350.211 233.629 343.982C233.629 343.943 233.628 343.904 233.628 343.864C233.482 335.261 231.927 328.062 228.947 322.012C225.945 315.919 221.684 311.374 216.695 307.834C208.496 302.015 197.786 298.664 187.354 295.401C185.687 294.879 184.027 294.36 182.385 293.833C169.971 289.848 157.295 285.148 145.636 276.103C134.089 267.144 123.172 253.622 114.95 231.448C101.431 194.988 102.837 166.592 104.118 140.724C104.482 133.389 104.835 126.257 104.835 119.202C104.835 103.902 106.616 94.745 110.889 89.2327C114.813 84.1697 122.198 80.6031 138.144 80.6031C151.492 80.6031 161.286 82.7803 173.389 85.4707C175.598 85.9618 177.885 86.4701 180.284 86.9854C195.833 90.3248 215.036 93.6585 246.397 93.6585C277.985 93.6585 313.788 86.8495 340.288 76.2311C353.461 70.9525 364.948 64.4931 372.396 56.9696C376.153 53.1743 379.171 48.8179 380.631 43.8992C382.138 38.8205 381.857 33.5398 379.598 28.4192C378.409 25.7226 376.383 23.5236 374.188 21.7408C371.945 19.9188 369.17 18.2445 365.983 16.7005C359.613 13.6136 351.001 10.7628 340.221 8.32088C318.622 3.42837 287.518 0 246.397 0C165.316 0 127.931 17.415 110.494 33.1758L109.276 7.94678H95.9525L98.1731 54.4922L142.585 55.6275V42.0044L121.567 41.4672Z" fill="#49984C"/>
<path fill-rule="evenodd" clip-rule="evenodd" d="M223.463 115.849C224.287 115.296 225.257 115 226.25 115H269.814C272.575 115 274.814 117.239 274.814 120V224.176H305C307.761 224.176 310 226.415 310 229.176V265C310 267.761 307.761 270 305 270H200C197.239 270 195 267.761 195 265V229.176C195 226.415 197.239 224.176 200 224.176H234.096V159.98L211.4 163.604C209.251 163.947 207.127 162.861 206.147 160.918L195.536 139.879C194.4 137.627 195.119 134.882 197.213 133.477L223.463 115.849ZM227.773 125L206.452 139.317L213.431 153.153L238.307 149.18C239.753 148.949 241.227 149.364 242.341 150.314C243.454 151.263 244.096 152.654 244.096 154.118V229.176C244.096 231.938 241.857 234.176 239.096 234.176H205V260H300V234.176H269.814C267.052 234.176 264.814 231.938 264.814 229.176V125H227.773Z" fill="#49984C"/>
</svg>
